<?xml version="1.0" encoding="UTF-8" ?>
<!DOCTYPE svg PUBLIC "-//W3C//DTD SVG 1.1//EN" "http://www.w3.org/Graphics/SVG/1.1/DTD/svg11.dtd">
<svg width="116pt" height="115pt" viewBox="0 0 116 115" version="1.1" xmlns="http://www.w3.org/2000/svg">
<path fill="#ffffff" d=" M 0.00 0.00 L 116.00 0.00 L 116.00 115.00 L 0.00 115.00 L 0.00 0.00 Z" />
<path fill="#f7971c" d=" M 53.29 1.50 C 67.90 0.52 82.82 5.51 93.83 15.18 C 104.55 24.42 111.58 37.83 112.95 51.92 C 114.51 66.24 110.23 81.08 101.32 92.38 C 91.92 104.51 77.38 112.50 62.08 113.81 C 49.08 115.03 35.69 111.56 24.97 104.08 C 13.08 95.94 4.55 83.07 1.72 68.93 C -0.59 56.22 0.94 42.66 7.22 31.25 C 16.11 14.27 34.14 2.57 53.29 1.50 Z" />
<path fill="#ffffff" d=" M 49.13 11.20 C 62.10 8.95 75.93 12.50 86.19 20.73 C 96.09 28.51 102.67 40.40 103.86 52.95 C 105.34 66.67 100.36 80.89 90.65 90.70 C 80.11 101.64 64.06 106.89 49.09 104.23 C 35.54 102.05 23.23 93.53 16.31 81.69 C 8.87 69.28 7.71 53.40 13.20 40.03 C 19.14 25.07 33.21 13.71 49.13 11.20 Z" />
<path fill="#f7971c" d=" M 66.83 39.99 C 66.72 36.92 68.72 33.59 71.98 33.29 C 75.84 32.89 79.75 32.91 83.62 33.19 C 82.00 35.58 76.96 34.22 77.39 37.94 C 77.31 46.95 77.38 55.97 77.36 64.99 C 77.37 70.39 77.72 76.52 73.83 80.82 C 70.06 85.55 63.53 86.00 57.95 86.35 C 52.22 86.47 45.96 86.40 41.00 83.14 C 36.97 80.52 35.11 75.62 34.97 70.97 C 34.59 62.64 35.02 54.30 34.81 45.97 C 35.10 43.56 32.25 42.90 30.85 41.60 C 35.92 41.44 41.01 41.33 46.07 41.67 C 44.55 42.63 42.88 43.34 41.38 44.34 C 40.86 49.87 41.31 55.44 41.14 60.99 C 41.30 66.12 40.65 71.52 42.68 76.38 C 44.37 79.89 48.55 81.02 52.12 81.32 C 56.09 81.56 60.48 81.12 63.64 78.48 C 66.22 76.09 66.46 72.33 66.68 69.04 C 66.96 59.36 66.54 49.67 66.83 39.99 Z" />
</svg>
